# xmcd CD database file
#
# Track frame offsets:
#	150
#	20860
#	41255
#	57385
#	72882
#	88527
#	113325
#	130115
#	149822
#	162052
#	189600
#
# Disc length: 4440 seconds
#
# Revision: 0
# Processed by: cddbd v1.5PL3 Copyright (c) Steve Scherf et al.
# Submitted via: CDex 1.50beta9
#
DISCID=9511560b
DTITLE=SEX MACHINEGUN - the maintenance
DYEAR=2004
DGENRE=Heavy Metal
TTITLE0=笑ってんじゃねえ
TTITLE1=爆乳ダイナマイト
TTITLE2=高齢化社会
TTITLE3=WIND
TTITLE4=チャーシューメン
TTITLE5=米　食べろ
TTITLE6=豆板醤
TTITLE7=FLYAWAY
TTITLE8=大逆転
TTITLE9=語れ!涙!
TTITLE10=CCCDdata
EXTD=YEAR: 2004
EXTT0=
EXTT1=
EXTT2=
EXTT3=
EXTT4=
EXTT5=
EXTT6=
EXTT7=
EXTT8=
EXTT9=
EXTT10=
PLAYORDER=
